<?xml version="1.0" encoding="utf-8"?>
<!-- Generator: Adobe Illustrator 22.0.1, SVG Export Plug-In . SVG Version: 6.00 Build 0)  -->
<svg version="1.1" id="Layer_2" xmlns="http://www.w3.org/2000/svg" xmlns:xlink="http://www.w3.org/1999/xlink" x="0px" y="0px"
	 viewBox="0 0 96 32" style="enable-background:new 0 0 96 32;" xml:space="preserve">
<style type="text/css">
	.st0{fill:#BFBFBF;}
	.st1{fill:#FFFCFF;}
	.st2{fill:#7D8483;}
	.st3{fill:#050005;}
	.st4{fill:#F9000C;}
	.st5{fill:#070000;}
	.st6{fill:#FFFFF3;}
	.st7{fill:#F80000;}
	.st8{fill:#FFFF02;}
	.st9{fill:#808001;}
</style>
<g id="block">
	<rect class="st0" width="15.8" height="15.9"/>
	<polygon class="st1" points="0.1,0.1 0.1,16 2.1,14 2.1,2.1 14,2.1 16,0.1 	"/>
	<polygon class="st2" points="16,16 16,0.1 14,2.1 14,14 2.1,14 0.1,16 	"/>
</g>
<g id="empty">
	<rect x="16" class="st0" width="16" height="16"/>
</g>
<g id="flag">
	<rect x="32" class="st0" width="15.9" height="15.9"/>
	<polygon class="st1" points="32,0.1 32,16 34,14 34,2.1 46,2.1 48,0.1 	"/>
	<polygon class="st2" points="48,16 48,0.1 46,2.1 46,14 34,14 32,16 	"/>
	<g>
		<polygon class="st3" points="42.2,11 42.2,10 41.2,10 41.2,8.1 40.2,8.1 40.2,10 38.2,10 38.2,11 36.2,11 36.2,13.1 44.2,13.1 
			44.2,11 		"/>
		<polygon class="st4" points="39.2,3.1 39.2,3.1 39.2,3.1 39.2,4.1 37.2,4.1 37.2,4.1 37.2,5.1 36.2,5.1 36.2,5.1 36.2,6 36.2,6.1 
			37.2,6.1 37.2,7.1 39.2,7.1 39.2,8.1 39.2,8.1 41.2,8.1 41.2,8.1 41.2,3.1 		"/>
	</g>
</g>
<g id="mine">
	<rect x="48" class="st0" width="16" height="16"/>
	<g>
		<g>
			<g>
				<polygon class="st5" points="60.5,7.6 60.5,5.6 59.5,5.6 59.5,4.6 58.5,4.6 58.5,3.5 56.5,3.5 56.5,1.6 55.5,1.6 55.5,3.5 
					53.5,3.5 53.5,4.6 52.5,4.6 52.5,5.6 51.5,5.6 51.5,7.6 49.4,7.6 49.4,8.6 51.5,8.6 51.5,10.6 52.5,10.6 52.5,11.6 53.5,11.6 
					53.5,12.6 55.5,12.6 55.5,14.6 56.5,14.6 56.5,12.6 58.5,12.6 58.5,11.6 59.5,11.6 59.5,10.6 60.5,10.6 60.5,8.6 62.6,8.6 
					62.6,7.6 				"/>
				<rect x="51.4" y="3.6" class="st5" width="1" height="1"/>
				<rect x="51.4" y="11.6" class="st5" width="1" height="1"/>
				<rect x="59.6" y="3.6" class="st5" width="1" height="1"/>
				<rect x="59.6" y="11.6" class="st5" width="1" height="1"/>
			</g>
		</g>
		<rect x="53.5" y="5.6" class="st6" width="2" height="2"/>
	</g>
</g>
<g id="boom">
	<rect x="64" class="st7" width="16" height="16"/>
	<g>
		<g>
			<g>
				<polygon class="st5" points="76.5,7.6 76.5,5.6 75.5,5.6 75.5,4.6 74.5,4.6 74.5,3.5 72.5,3.5 72.5,1.6 71.5,1.6 71.5,3.5 
					69.5,3.5 69.5,4.6 68.5,4.6 68.5,5.6 67.5,5.6 67.5,7.6 65.4,7.6 65.4,8.6 67.5,8.6 67.5,10.6 68.5,10.6 68.5,11.6 69.5,11.6 
					69.5,12.6 71.5,12.6 71.5,14.6 72.5,14.6 72.5,12.6 74.5,12.6 74.5,11.6 75.5,11.6 75.5,10.6 76.5,10.6 76.5,8.6 78.6,8.6 
					78.6,7.6 				"/>
				<rect x="67.4" y="3.6" class="st5" width="1" height="1"/>
				<rect x="67.4" y="11.6" class="st5" width="1" height="1"/>
				<rect x="75.6" y="3.6" class="st5" width="1" height="1"/>
				<rect x="75.6" y="11.6" class="st5" width="1" height="1"/>
			</g>
		</g>
		<rect x="69.5" y="5.6" class="st6" width="2" height="2"/>
	</g>
</g>
<g id="mine_1_">
	<rect x="80" class="st0" width="16" height="16"/>
	<g>
		<g>
			<g>
				<polygon class="st5" points="92.5,7.5 92.5,5.5 91.5,5.5 91.5,4.5 90.5,4.5 90.5,3.4 88.5,3.4 88.5,1.5 87.5,1.5 87.5,3.4 
					85.5,3.4 85.5,4.5 84.5,4.5 84.5,5.5 83.5,5.5 83.5,7.5 81.4,7.5 81.4,8.5 83.5,8.5 83.5,10.5 84.5,10.5 84.5,11.5 85.5,11.5 
					85.5,12.6 87.5,12.6 87.5,14.5 88.5,14.5 88.5,12.6 90.5,12.6 90.5,11.5 91.5,11.5 91.5,10.5 92.5,10.5 92.5,8.5 94.6,8.5 
					94.6,7.5 				"/>
				<rect x="83.4" y="3.5" class="st5" width="1" height="1"/>
				<rect x="83.4" y="11.5" class="st5" width="1" height="1"/>
				<rect x="91.6" y="3.5" class="st5" width="1" height="1"/>
				<rect x="91.6" y="11.5" class="st5" width="1" height="1"/>
			</g>
		</g>
		<rect x="85.5" y="5.5" class="st6" width="2" height="2"/>
	</g>
	<polygon class="st7" points="89.5,7 89.5,7 90.5,7 90.5,6 91.5,6 91.5,5 92.5,5 92.5,4 93.6,4 93.6,3 94.6,3 94.6,2 92.5,2 92.5,3 
		91.5,3 91.5,4 90.5,4 90.5,5 89.5,5 89.5,6 88.5,6 88.5,7 88.5,7 87.5,7 87.5,7 87.5,6 86.5,6 86.5,5 85.5,5 85.5,4 84.5,4 84.5,3 
		83.5,3 83.5,2 81.4,2 81.4,3 82.4,3 82.4,4 83.5,4 83.5,5 84.5,5 84.5,6 85.5,6 85.5,7 86.5,7 86.5,7 86.5,8 86.5,9 85.5,9 
		85.5,10 84.5,10 84.5,11 83.5,11 83.5,12 82.4,12 82.4,13 81.4,13 81.4,14 83.5,14 83.5,13 84.5,13 84.5,12 85.5,12 85.5,11 
		86.5,11 86.5,10 87.5,10 87.5,9 87.5,9 88.5,9 88.5,9 88.5,10 89.5,10 89.5,11 90.5,11 90.5,12 91.5,12 91.5,13 92.5,13 92.5,14 
		94.6,14 94.6,13 93.6,13 93.6,12 92.5,12 92.5,11 91.5,11 91.5,10 90.5,10 90.5,9 89.5,9 89.5,8 	"/>
</g>
<g id="smile">
	<polygon points="14.2,22.4 13.5,22.4 13.5,20.9 12.8,20.9 12.8,20.1 12,20.1 12,19.4 11.3,19.4 11.3,18.7 9.8,18.7 9.8,17.9 
		5.9,17.9 5.9,18.7 4.4,18.7 4.4,19.4 3.7,19.4 3.7,20.1 2.9,20.1 2.9,20.9 2.2,20.9 2.2,22.4 1.5,22.4 1.5,26.1 2.2,26.1 2.2,27.6 
		2.9,27.6 2.9,28.4 3.7,28.4 3.7,29.2 4.4,29.2 4.4,29.9 5.9,29.9 5.9,30.6 9.8,30.6 9.8,29.9 11.3,29.9 11.3,29.2 12,29.2 12,28.4 
		12.8,28.4 12.8,27.6 13.5,27.6 13.5,26.1 14.2,26.1 	"/>
	<polygon class="st8" points="13.5,22.4 12.7,22.4 12.7,20.9 12,20.9 12,20.1 11.2,20.1 11.2,19.4 9.8,19.4 9.8,18.7 5.9,18.7 
		5.9,19.4 4.5,19.4 4.5,20.1 3.7,20.1 3.7,20.9 3,20.9 3,22.4 2.2,22.4 2.2,26.1 3,26.1 3,27.6 3.7,27.6 3.7,28.4 4.5,28.4 
		4.5,29.2 5.9,29.2 5.9,29.9 9.8,29.9 9.8,29.2 11.2,29.2 11.2,28.4 12,28.4 12,27.6 12.7,27.6 12.7,26.1 13.5,26.1 	"/>
	<rect x="5.3" y="21.6" width="1.5" height="1.5"/>
	<rect x="9" y="21.6" width="1.5" height="1.5"/>
	<g>
		<polygon points="5.3,26.2 5.3,25.4 4.5,25.4 4.5,26.2 5.2,26.2 5.2,26.9 6,26.9 6,26.2 		"/>
		<polygon points="8,26.9 6,26.9 6,27.7 7.8,27.7 7.8,27.7 9.8,27.7 9.8,26.9 8,26.9 		"/>
		<polygon points="11.3,25.4 10.5,25.4 10.5,26.2 9.8,26.2 9.8,26.9 10.5,26.9 10.5,26.2 11.3,26.2 		"/>
	</g>
</g>
<g id="smile_1_">
	<polygon points="30.4,22.2 29.6,22.2 29.6,20.7 28.9,20.7 28.9,19.9 28.1,19.9 28.1,19.2 27.4,19.2 27.4,18.4 25.9,18.4 25.9,17.6 
		22.1,17.6 22.1,18.4 20.6,18.4 20.6,19.2 19.9,19.2 19.9,19.9 19.1,19.9 19.1,20.7 18.4,20.7 18.4,22.2 17.6,22.2 17.6,25.9 
		18.4,25.9 18.4,27.4 19.1,27.4 19.1,28.2 19.9,28.2 19.9,28.9 20.6,28.9 20.6,29.7 22.1,29.7 22.1,30.4 25.9,30.4 25.9,29.7 
		27.4,29.7 27.4,28.9 28.1,28.9 28.1,28.2 28.9,28.2 28.9,27.4 29.6,27.4 29.6,25.9 30.4,25.9 	"/>
	<polygon class="st8" points="29.6,22.2 28.9,22.2 28.9,20.7 28.1,20.7 28.1,19.9 27.4,19.9 27.4,19.1 25.9,19.1 25.9,18.4 
		22.1,18.4 22.1,19.1 20.6,19.1 20.6,19.9 19.9,19.9 19.9,20.7 19.1,20.7 19.1,22.2 18.4,22.2 18.4,25.9 19.1,25.9 19.1,27.4 
		19.9,27.4 19.9,28.2 20.6,28.2 20.6,29 22.1,29 22.1,29.7 25.9,29.7 25.9,29 27.4,29 27.4,28.2 28.1,28.2 28.1,27.4 28.9,27.4 
		28.9,25.9 29.6,25.9 	"/>
	<g>
		<rect x="20.5" y="20.9" class="st9" width="2.2" height="2.2"/>
		<rect x="21.3" y="20.9" width="0.8" height="2.2"/>
		<rect x="21.3" y="20.9" transform="matrix(-1.836970e-16 1 -1 -1.836970e-16 43.6419 0.3368)" width="0.8" height="2.2"/>
	</g>
	<g>
		<rect x="25" y="20.9" class="st9" width="2.2" height="2.2"/>
		<rect x="25.8" y="20.9" width="0.8" height="2.2"/>
		<rect x="25.8" y="20.9" transform="matrix(-1.836970e-16 1 -1 -1.836970e-16 48.1517 -4.173)" width="0.8" height="2.2"/>
	</g>
	<g>
		<g>
			<polygon points="25,24.6 24.3,24.6 23.5,24.6 22.8,24.6 22.8,25.4 22.8,26.1 23.5,26.1 23.5,25.4 24.3,25.4 24.3,26.1 25,26.1 
				25,25.4 			"/>
			<rect x="25" y="26.1" width="0.7" height="0.7"/>
			<rect x="24.3" y="26.9" width="0.7" height="0.7"/>
			<polygon points="23.5,27.6 22.8,27.6 22.8,28.4 23.5,28.4 24.3,28.4 25,28.4 25,27.6 24.3,27.6 			"/>
			<polygon points="22.8,27.6 23.5,27.6 23.5,26.9 22.8,26.9 22.8,26.1 22,26.1 22,26.9 22.8,26.9 			"/>
		</g>
		<g>
			<rect x="22" y="26.9" class="st9" width="0.7" height="0.7"/>
			<rect x="22" y="25.4" class="st9" width="0.7" height="0.7"/>
			<rect x="25" y="26.9" class="st9" width="0.7" height="0.7"/>
			<rect x="25" y="25.4" class="st9" width="0.7" height="0.7"/>
		</g>
	</g>
</g>
<g id="smile_2_">
	<polygon points="46.4,22.2 45.6,22.2 45.6,20.7 44.9,20.7 44.9,19.9 44.1,19.9 44.1,19.2 43.4,19.2 43.4,18.4 41.9,18.4 41.9,17.6 
		38.1,17.6 38.1,18.4 36.6,18.4 36.6,19.2 35.9,19.2 35.9,19.9 35.1,19.9 35.1,20.7 34.4,20.7 34.4,22.2 33.6,22.2 33.6,25.9 
		34.4,25.9 34.4,27.4 35.1,27.4 35.1,28.2 35.9,28.2 35.9,28.9 36.6,28.9 36.6,29.7 38.1,29.7 38.1,30.4 41.9,30.4 41.9,29.7 
		43.4,29.7 43.4,28.9 44.1,28.9 44.1,28.2 44.9,28.2 44.9,27.4 45.6,27.4 45.6,25.9 46.4,25.9 	"/>
	<polygon class="st8" points="45.6,22.2 44.9,22.2 44.9,20.7 44.1,20.7 44.1,19.9 43.4,19.9 43.4,19.1 41.9,19.1 41.9,18.4 
		38.1,18.4 38.1,19.1 36.6,19.1 36.6,19.9 35.9,19.9 35.9,20.7 35.1,20.7 35.1,22.2 34.4,22.2 34.4,25.9 35.1,25.9 35.1,27.4 
		35.9,27.4 35.9,28.2 36.6,28.2 36.6,29 38.1,29 38.1,29.7 41.9,29.7 41.9,29 43.4,29 43.4,28.2 44.1,28.2 44.1,27.4 44.9,27.4 
		44.9,25.9 45.6,25.9 	"/>
	<g>
		<polygon points="37.4,25.9 37.4,25.2 36.6,25.2 36.6,25.9 37.4,25.9 37.4,26.7 38.2,26.7 38.2,25.9 		"/>
		<polygon points="40.2,26.7 38.2,26.7 38.2,27.4 39.9,27.4 39.9,27.4 41.9,27.4 41.9,26.7 40.2,26.7 		"/>
		<polygon points="43.4,25.2 42.6,25.2 42.6,25.9 41.9,25.9 41.9,26.7 42.7,26.7 42.7,26 43.4,26 		"/>
	</g>
	<g>
		<polygon points="44.9,23.7 44.9,22.9 44.1,22.9 44.1,23.7 44.9,23.7 44.9,24.5 45.6,24.5 45.6,23.7 		"/>
		<polygon points="35.1,23.7 34.4,23.7 34.4,24.5 35.1,24.5 35.1,23.7 35.9,23.7 35.9,22.9 35.1,22.9 		"/>
		<polygon points="43.4,22.2 43.4,21.4 42.6,21.4 42.6,21.4 37.4,21.4 36.6,21.4 36.6,22.2 36.6,22.2 35.9,22.2 35.9,22.9 
			36.6,22.9 36.6,23.7 37.4,23.7 37.4,24.5 38.9,24.5 38.9,23.7 39.6,23.7 39.6,22.2 40.4,22.2 40.4,23.7 41.1,23.7 41.1,24.5 
			42.7,24.5 42.7,23.7 43.4,23.7 43.4,22.9 44.1,22.9 44.1,22.2 43.4,22.2 		"/>
	</g>
</g>
<g id="smile_3_">
	<polygon points="62.2,22.3 61.5,22.3 61.5,20.8 60.8,20.8 60.8,20 60,20 60,19.2 59.3,19.2 59.3,18.5 57.8,18.5 57.8,17.7 
		53.9,17.7 53.9,18.5 52.4,18.5 52.4,19.2 51.7,19.2 51.7,20 50.9,20 50.9,20.8 50.2,20.8 50.2,22.3 49.5,22.3 49.5,26 50.2,26 
		50.2,27.5 50.9,27.5 50.9,28.2 51.7,28.2 51.7,29 52.4,29 52.4,29.7 53.9,29.7 53.9,30.4 57.8,30.4 57.8,29.7 59.3,29.7 59.3,29 
		60,29 60,28.2 60.8,28.2 60.8,27.5 61.5,27.5 61.5,26 62.2,26 	"/>
	<polygon class="st8" points="61.5,22.2 60.7,22.2 60.7,20.8 60,20.8 60,20 59.2,20 59.2,19.2 57.8,19.2 57.8,18.5 53.9,18.5 
		53.9,19.2 52.5,19.2 52.5,20 51.7,20 51.7,20.8 51,20.8 51,22.2 50.2,22.2 50.2,26 51,26 51,27.5 51.7,27.5 51.7,28.3 52.5,28.3 
		52.5,29 53.9,29 53.9,29.7 57.8,29.7 57.8,29 59.2,29 59.2,28.3 60,28.3 60,27.5 60.7,27.5 60.7,26 61.5,26 	"/>
	<g>
		<polygon points="58.5,26.7 58.5,27.5 59.3,27.5 59.3,26.7 58.5,26.7 58.5,26 57.8,26 57.8,26.7 		"/>
		<polygon points="55.8,26 57.8,26 57.8,25.2 56,25.2 56,25.2 54,25.2 54,26 55.8,26 		"/>
		<polygon points="52.5,27.5 53.3,27.5 53.3,26.7 54,26.7 54,26 53.3,26 53.3,26.7 52.5,26.7 		"/>
	</g>
	<g>
		<rect x="56.9" y="22.5" width="0.7" height="0.7"/>
		<rect x="56.9" y="21" width="0.7" height="0.7"/>
		<rect x="58.4" y="22.5" width="0.7" height="0.7"/>
		<rect x="58.4" y="21" width="0.7" height="0.7"/>
		<rect x="57.6" y="21.7" width="0.7" height="0.7"/>
	</g>
	<g>
		<rect x="52.4" y="22.5" width="0.7" height="0.7"/>
		<rect x="52.4" y="21" width="0.7" height="0.7"/>
		<rect x="53.9" y="22.5" width="0.7" height="0.7"/>
		<rect x="53.9" y="21" width="0.7" height="0.7"/>
		<rect x="53.1" y="21.7" width="0.7" height="0.7"/>
	</g>
</g>
</svg>
